<svg height="67" width="755" viewBox="258 307 755 67" style="background-color:transparent;" preserveAspectRatio="xMinYMin meet" xmlns:xlink="http://www.w3.org/1999/xlink" xmlns="http://www.w3.org/2000/svg"><defs><style type="text/css">.svg-txt-center tspan {text-anchor: middle;}.svg-txt-right tspan {text-anchor: end;}</style></defs><g transform="translate(0,0)"><g transform="matrix(1,0,0,1,580,320)"><path style="fill:rgb(0,102,0);stroke:rgb(0,76,0);stroke-width:3.0;;" d="m131.1457732088239,29.26881934366494c0,4.810975287874417 -5.666684181742669,8.710332960793401 -12.658163253254674,8.710332960793401l-105.79035487995198,0c-6.991479071512006,0 -12.658163253254674,-3.8993576729189847 -12.658163253254674,-8.710332960793401l0,-18.043706595790123c0,-4.810975287874417 5.666684181742669,-8.710332960793401 12.658163253254674,-8.710332960793401l107.5982405237088,-2.488593724047799c6.992190370781681,0 12.658874552524349,5.143889067438901 12.658874552524349,9.954864355313317l-1.8086206530021443,19.287748531187916z"/></g><text style="font-weight:bold; font-size: 12px; text-anchor: middle; font-family: arial,helvetica,sans-serif; fill: #ffffff;" class="svg-txt-center" y="343" x="646">Преступление</text></g><g transform="translate(0,0)"><g transform="matrix(1,0,0,1,510,336)"><path style="fill:none;stroke:#333333;stroke-width:6;;" d="m0,0"/></g></g><g transform="translate(0,0)"><path style="fill:none;stroke:#333333;stroke-width:2;;" d="M334,339 C334,339 334,339  334,339"/><text style="font-weight:Normal; font-size: 12px; text-anchor: middle; font-family: sans-serif; fill: #333333;" class="" y="323" x="349"/><text style="font-weight:Normal; font-size: 12px; text-anchor: start; font-family: sans-serif; fill: #333333;" class="" y="339" x="334"/><text style="font-weight:Normal; font-size: 12px; text-anchor: middle; font-family: sans-serif; fill: #333333;" class="" y="353" x="349"/></g><g transform="translate(0,0)"><g transform="matrix(0.6111111111111112,0,0,0.75,711,334)"><path style="fill:none;stroke:#333333;stroke-width:6;;" d="m0,4c24.86789,-3.55256 66.88657,-5.73049 93,-2c13.54913,1.93559 36.06775,-1.30339 50,-2c12.68687,-0.63434 24.36604,2 37,2"/></g></g><g transform="translate(0,0)"><g transform="matrix(0.9253731343283582,0,0,0.875,457,335)"><path style="fill:none;stroke:#333333;stroke-width:6;;" d="m0,2c0,2.04843 9.84744,1 12,1c14.07983,0 26.65331,-2.04355 41,-3c27.89684,-1.85979 52.70567,8 81,8"/></g></g><g transform="translate(0,0)"><g transform="matrix(1,0,0,1,315,320)"><path style="fill:rgb(255,0,0);stroke:rgb(229,0,0);stroke-width:3.0;;" d="m141.9924161057943,29.26881934366494c0,4.810975287874417 -6.135357309555972,8.710332960793401 -13.705079011042654,8.710332960793401l-114.5399331031059,0c-7.569721701486682,0 -13.705079011042654,-3.8993576729189847 -13.705079011042654,-8.710332960793401l0,-18.043706595790123c0,-4.810975287874417 6.135357309555972,-8.710332960793401 13.705079011042654,-8.710332960793401l116.49734312341404,-2.488593724047799c7.570491830019263,0 13.705849139575236,5.143889067438901 13.705849139575236,9.954864355313317l-1.9582058197917953,19.287748531187916z"/></g><text style="font-weight:bold; font-size: 12px; text-anchor: middle; font-family: arial,helvetica,sans-serif; fill: #ffffff;" class="svg-txt-center" y="343" x="387">Детектирование</text></g><g transform="translate(0,0)"><g transform="matrix(1,0,0,1,820,317)"><path style="fill:rgb(0,0,204);stroke:rgb(0,0,178);stroke-width:3.0;;" d="m137.06212387989862,29.26881934366494c0,4.810975287874417 -5.922324069640833,8.710332960793401 -13.229208212048116,8.710332960793401l-110.56285209258138,0c-7.3068841424072835,0 -13.229208212048116,-3.8993576729189847 -13.229208212048116,-8.710332960793401l0,-18.043706595790123c0,-4.810975287874417 5.922324069640833,-8.710332960793401 13.229208212048116,-8.710332960793401l112.45229648718437,-2.488593724047799c7.307627530365816,0 13.229951600006649,5.143889067438901 13.229951600006649,9.954864355313317l-1.8902125621601356,19.287748531187916z"/></g><text style="font-weight:bold; font-size: 12px; text-anchor: middle; font-family: arial,helvetica,sans-serif; fill: #ffffff;" class="svg-txt-center" y="340" x="889">Распознавание</text></g><g transform="translate(0,0)"><g transform="matrix(1,0,0,1,283,337)"><path style="fill:none;stroke:#333333;stroke-width:6;;" d="m0,5c0,-3.01685 6.21724,-1.81149 8,-3c5.54393,-3.69595 15.8984,2 23,2"/></g></g><g transform="translate(0,0)"><g transform="matrix(1,0,0,1,958,331)"><path style="fill:none;stroke:#333333;stroke-width:6;;" d="m0,4c9.80744,0 19.79872,-3 31,-3"/></g></g><g transform="translate(0,0)"><path style="fill:none;stroke:#333333;stroke-width:2;;" d="M994,340 C994,340 994,340  994,340"/><text style="font-weight:Normal; font-size: 12px; text-anchor: middle; font-family: sans-serif; fill: #333333;" class="" y="324" x="1009"/><text style="font-weight:Normal; font-size: 12px; text-anchor: start; font-family: sans-serif; fill: #333333;" class="" y="340" x="994"/><text style="font-weight:Normal; font-size: 12px; text-anchor: middle; font-family: sans-serif; fill: #333333;" class="" y="354" x="1009"/></g><text style="font-weight:Normal; font-size: 16px; text-anchor: end; font-family: Arial; fill: #ccc;" y="359" x="998">www.sketchboard.io</text></svg>